<svg width="632" height="236" viewBox="0 0 632 236" fill="none" xmlns="http://www.w3.org/2000/svg">
<path d="M200.376 46.9462V5.92115H228V230.502H200.376V192.014C176.463 221.62 146.365 236 112.145 236C48.2387 236 0 181.441 0 117.577C0 53.7133 49.4756 0 112.969 0C148.427 0 178.524 15.6488 200.376 46.9462ZM115.443 27.914C65.1429 27.914 28.8608 70.2079 28.8608 118.423C28.8608 167.061 65.9675 209.778 115.031 209.778C159.971 209.778 202.438 175.097 202.438 119.269C202.438 67.2473 164.506 27.914 115.443 27.914Z" fill="#858485"/>
<path d="M430.745 46.9462V5.92115H403V230.502H430.745V192.014C454.763 221.62 484.993 236 519.363 236C583.55 236 632 181.441 632 117.577C632 53.7133 582.307 0 518.535 0C482.922 0 452.693 15.6488 430.745 46.9462ZM516.051 27.914C566.571 27.914 603.013 70.2079 603.013 118.423C603.013 167.061 565.743 209.778 516.465 209.778C471.327 209.778 428.674 175.097 428.674 119.269C428.674 67.2473 466.772 27.914 516.051 27.914Z" fill="#858485"/>
<path d="M380.744 174.897L232 8H380.744V174.897Z" fill="#F427BB"/>
<path d="M251.07 228V61.1034L396 228H251.07Z" fill="#F427BB"/>
</svg>
