<svg width="83" height="34" viewBox="0 0 83 34" fill="none" xmlns="http://www.w3.org/2000/svg">
<path d="M10.9825 3.39464C10.5935 3.78376 10.375 4.31145 10.375 4.86167C10.375 5.41188 10.5935 5.93957 10.9825 6.32869L21.2538 16.5999L10.9825 26.8712C10.6046 27.2625 10.3954 27.7867 10.4001 28.3308C10.4049 28.8748 10.6231 29.3952 11.0078 29.78C11.3925 30.1647 11.913 30.3829 12.457 30.3876C13.0011 30.3924 13.5252 30.1832 13.9166 29.8052L25.6549 18.067C26.0439 17.6778 26.2624 17.1502 26.2624 16.5999C26.2624 16.0497 26.0439 15.522 25.6549 15.1329L13.9166 3.39464C13.5275 3.00564 12.9998 2.78711 12.4496 2.78711C11.8993 2.78711 11.3717 3.00564 10.9825 3.39464V3.39464Z" fill="#FBCB0A"/>
<path d="M27.5821 3.39464C27.1931 3.78376 26.9746 4.31145 26.9746 4.86167C26.9746 5.41188 27.1931 5.93957 27.5821 6.32869L37.8534 16.5999L27.5821 26.8712C27.2042 27.2625 26.995 27.7867 26.9997 28.3308C27.0045 28.8748 27.2227 29.3952 27.6074 29.78C27.9921 30.1647 28.5126 30.3829 29.0566 30.3876C29.6007 30.3924 30.1248 30.1832 30.5162 29.8052L42.2545 18.067C42.6435 17.6778 42.862 17.1502 42.862 16.5999C42.862 16.0497 42.6435 15.522 42.2545 15.1329L30.5162 3.39464C30.1271 3.00564 29.5994 2.78711 29.0492 2.78711C28.499 2.78711 27.9713 3.00564 27.5821 3.39464V3.39464Z" fill="#FBCB0A"/>
<path d="M44.1818 3.39464C43.7927 3.78376 43.5742 4.31145 43.5742 4.86167C43.5742 5.41188 43.7927 5.93957 44.1818 6.32869L54.453 16.5999L44.1818 26.8712C43.8038 27.2625 43.5946 27.7867 43.5994 28.3308C43.6041 28.8748 43.8223 29.3952 44.207 29.78C44.5917 30.1647 45.1122 30.3829 45.6562 30.3876C46.2003 30.3924 46.7245 30.1832 47.1158 29.8052L58.8541 18.067C59.2431 17.6778 59.4616 17.1502 59.4616 16.5999C59.4616 16.0497 59.2431 15.522 58.8541 15.1329L47.1158 3.39464C46.7267 3.00564 46.199 2.78711 45.6488 2.78711C45.0986 2.78711 44.5709 3.00564 44.1818 3.39464V3.39464Z" fill="#FBCB0A"/>
<path d="M60.7833 3.39464C60.3943 3.78376 60.1758 4.31145 60.1758 4.86167C60.1758 5.41188 60.3943 5.93957 60.7833 6.32869L71.0546 16.5999L60.7833 26.8712C60.4053 27.2625 60.1962 27.7867 60.2009 28.3308C60.2056 28.8748 60.4239 29.3952 60.8086 29.78C61.1933 30.1647 61.7137 30.3829 62.2578 30.3876C62.8019 30.3924 63.326 30.1832 63.7174 29.8052L75.4556 18.067C75.8446 17.6778 76.0632 17.1502 76.0632 16.5999C76.0632 16.0497 75.8446 15.522 75.4556 15.1329L63.7174 3.39464C63.3282 3.00564 62.8006 2.78711 62.2503 2.78711C61.7001 2.78711 61.1724 3.00564 60.7833 3.39464V3.39464Z" fill="#FBCB0A"/>
</svg>
