<svg width="183" height="183" viewBox="0 0 183 183" fill="none" xmlns="http://www.w3.org/2000/svg">
<g filter="url(#filter0_d_48_71)">
<circle cx="91.5" cy="89.5" r="81.5" fill="#39A6A3"/>
</g>
<g opacity="0.7">
<path d="M125 66.75C125 63.1033 123.551 59.6059 120.973 57.0273C118.394 54.4487 114.897 53 111.25 53H72.75C69.1033 53 65.6059 54.4487 63.0273 57.0273C60.4487 59.6059 59 63.1033 59 66.75V73.669C63.0674 70.9442 67.8543 69.4928 72.75 69.5C78.646 69.5 84.058 71.5625 88.3095 75H119.5V105.25C119.5 107.438 118.631 109.536 117.084 111.084C115.536 112.631 113.438 113.5 111.25 113.5H103.665L106.085 115.92C106.982 116.817 107.631 117.873 108.032 119H111.25C114.897 119 118.394 117.551 120.973 114.973C123.551 112.394 125 108.897 125 105.25V66.75ZM72.75 69.5H64.5V66.75C64.5 64.562 65.3692 62.4635 66.9164 60.9164C68.4635 59.3692 70.562 58.5 72.75 58.5H111.25C113.438 58.5 115.536 59.3692 117.084 60.9164C118.631 62.4635 119.5 64.562 119.5 66.75V69.5H72.75ZM84.278 109.667C80.3804 112.581 75.5235 113.911 70.6847 113.389C65.846 112.867 61.3846 110.531 58.1985 106.852C55.0124 103.173 53.338 98.4241 53.5124 93.5604C53.6867 88.6967 55.6968 84.0796 59.1382 80.6382C62.5796 77.1969 67.1967 75.1867 72.0604 75.0124C76.9241 74.838 81.6733 76.5124 85.3523 79.6985C89.0312 82.8846 91.3668 87.346 91.8889 92.1847C92.411 97.0235 91.081 101.88 88.1665 105.778L102.191 119.803C102.708 120.319 102.998 121.018 102.999 121.748C102.999 122.478 102.71 123.178 102.194 123.694C101.679 124.211 100.979 124.501 100.249 124.502C99.5194 124.502 98.8194 124.213 98.303 123.697L84.278 109.672V109.667ZM86.5 94.25C86.5 90.6033 85.0513 87.1059 82.4727 84.5273C79.8941 81.9487 76.3967 80.5 72.75 80.5C69.1033 80.5 65.6059 81.9487 63.0273 84.5273C60.4487 87.1059 59 90.6033 59 94.25C59 97.8967 60.4487 101.394 63.0273 103.973C65.6059 106.551 69.1033 108 72.75 108C76.3967 108 79.8941 106.551 82.4727 103.973C85.0513 101.394 86.5 97.8967 86.5 94.25V94.25Z" fill="white"/>
</g>
<defs>
<filter id="filter0_d_48_71" x="0" y="0" width="183" height="183" filterUnits="userSpaceOnUse" color-interpolation-filters="sRGB">
<feFlood flood-opacity="0" result="BackgroundImageFix"/>
<feColorMatrix in="SourceAlpha" type="matrix" values="0 0 0 0 0 0 0 0 0 0 0 0 0 0 0 0 0 0 127 0" result="hardAlpha"/>
<feOffset dy="2"/>
<feGaussianBlur stdDeviation="5"/>
<feComposite in2="hardAlpha" operator="out"/>
<feColorMatrix type="matrix" values="0 0 0 0 0 0 0 0 0 0 0 0 0 0 0 0 0 0 0.1 0"/>
<feBlend mode="normal" in2="BackgroundImageFix" result="effect1_dropShadow_48_71"/>
<feBlend mode="normal" in="SourceGraphic" in2="effect1_dropShadow_48_71" result="shape"/>
</filter>
</defs>
</svg>
