<svg width="183" height="183" viewBox="0 0 183 183" fill="none" xmlns="http://www.w3.org/2000/svg">
<g filter="url(#filter0_d_48_66)">
<circle cx="91.5" cy="89.5" r="81.5" fill="#39A6A3"/>
</g>
<g opacity="0.7">
<path d="M75 76.25H92V80.5H75V76.25ZM75 67.75H100.5V72H75V67.75ZM75 59.25H100.5V63.5H75V59.25Z" fill="white"/>
<path d="M113.401 81.3022L98.5371 103.488L82.9517 89.8838C82.9514 89.8836 82.9512 89.8834 82.9509 89.8831C82.4457 89.4361 81.8465 89.1083 81.1976 88.9238C80.5484 88.7392 79.866 88.7028 79.2009 88.8172C78.5357 88.9317 77.9047 89.1941 77.3546 89.5851C76.8046 89.9759 76.3495 90.4852 76.0227 91.0754C76.0225 91.0757 76.0224 91.0759 76.0223 91.0762L66.75 107.56V59.25V59H66.5H62.25H62V59.25L62 114.5L62 114.5C62.0012 115.693 62.4757 116.837 63.3193 117.681C64.1629 118.524 65.3067 118.999 66.4998 119H66.5H121.75H122V118.75V114.5V114.25H121.75H68.4386L80.0438 93.6489L95.6078 107.237C95.6081 107.237 95.6084 107.237 95.6088 107.237C96.1142 107.687 96.7144 108.017 97.3649 108.202C98.0158 108.388 98.7001 108.424 99.367 108.309C100.034 108.193 100.666 107.929 101.217 107.535C101.764 107.144 102.217 106.634 102.541 106.045L117.346 83.9478L117.486 83.7402L117.278 83.601L113.748 81.2337L113.541 81.0944L113.401 81.3022Z" fill="white" stroke="white" stroke-width="0.5"/>
</g>
<defs>
<filter id="filter0_d_48_66" x="0" y="0" width="183" height="183" filterUnits="userSpaceOnUse" color-interpolation-filters="sRGB">
<feFlood flood-opacity="0" result="BackgroundImageFix"/>
<feColorMatrix in="SourceAlpha" type="matrix" values="0 0 0 0 0 0 0 0 0 0 0 0 0 0 0 0 0 0 127 0" result="hardAlpha"/>
<feOffset dy="2"/>
<feGaussianBlur stdDeviation="5"/>
<feComposite in2="hardAlpha" operator="out"/>
<feColorMatrix type="matrix" values="0 0 0 0 0 0 0 0 0 0 0 0 0 0 0 0 0 0 0.1 0"/>
<feBlend mode="normal" in2="BackgroundImageFix" result="effect1_dropShadow_48_66"/>
<feBlend mode="normal" in="SourceGraphic" in2="effect1_dropShadow_48_66" result="shape"/>
</filter>
</defs>
</svg>
