<svg width="183" height="183" viewBox="0 0 183 183" fill="none" xmlns="http://www.w3.org/2000/svg">
<g filter="url(#filter0_d_48_75)">
<circle cx="91.5" cy="89.5" r="81.5" fill="#39A6A3"/>
</g>
<g opacity="0.7">
<path d="M69.4583 55.165L65.8503 58.7679L71.2188 64.1338L74.8216 60.5309L69.4557 55.165H69.4583ZM116.544 55.165L111.176 60.5309L114.781 64.1338L120.147 58.7705L116.542 55.165H116.544ZM93 56.764C92.1544 56.7743 91.2985 56.823 90.4375 56.928C90.4119 56.928 90.3863 56.9229 90.3606 56.928C79.9671 58.1196 71.6954 66.5169 70.2578 76.8643C69.1098 85.1924 72.5436 92.7441 78.2656 97.6077C80.6062 99.6053 82.1894 102.346 82.75 105.372V120.747H88.5925C89.4842 122.277 91.1114 123.31 93 123.31C94.8886 123.31 96.5157 122.277 97.4075 120.747H103.25V110.497H103.491V107.453C103.491 103.696 105.443 99.9089 108.616 96.9645C112.859 92.7159 116.062 86.6812 116.062 79.7497C116.062 67.0909 105.643 56.6462 93 56.764V56.764ZM93 61.889C102.904 61.7507 110.938 69.8584 110.938 79.7497C110.938 85.1155 108.452 89.8408 105.01 93.2797L105.092 93.3617C101.672 96.5153 99.461 100.764 98.8399 105.375H87.6316C87.0678 100.983 85.1844 96.7314 81.6251 93.682C77.0971 89.8382 74.3988 84.047 75.3008 77.5075C76.4206 69.4356 82.9704 62.9448 90.9961 62.0556C91.6587 61.9632 92.3261 61.9085 92.9949 61.8916L93 61.889ZM57.125 79.7497V84.8747H64.8125V79.7497H57.125ZM121.188 79.7497V84.8747H128.875V79.7497H121.188ZM71.2188 100.491L65.8529 105.854L69.4583 109.459L74.8191 104.093L71.2188 100.491ZM114.781 100.491L111.178 104.093L116.542 109.459L120.147 105.854L114.781 100.491ZM87.875 110.5H98.125V115.625H87.875V110.5Z" fill="white"/>
</g>
<defs>
<filter id="filter0_d_48_75" x="0" y="0" width="183" height="183" filterUnits="userSpaceOnUse" color-interpolation-filters="sRGB">
<feFlood flood-opacity="0" result="BackgroundImageFix"/>
<feColorMatrix in="SourceAlpha" type="matrix" values="0 0 0 0 0 0 0 0 0 0 0 0 0 0 0 0 0 0 127 0" result="hardAlpha"/>
<feOffset dy="2"/>
<feGaussianBlur stdDeviation="5"/>
<feComposite in2="hardAlpha" operator="out"/>
<feColorMatrix type="matrix" values="0 0 0 0 0 0 0 0 0 0 0 0 0 0 0 0 0 0 0.1 0"/>
<feBlend mode="normal" in2="BackgroundImageFix" result="effect1_dropShadow_48_75"/>
<feBlend mode="normal" in="SourceGraphic" in2="effect1_dropShadow_48_75" result="shape"/>
</filter>
</defs>
</svg>
