<svg width="183" height="183" viewBox="0 0 183 183" fill="none" xmlns="http://www.w3.org/2000/svg">
<g filter="url(#filter0_d_48_79)">
<circle cx="91.5" cy="89.5" r="81.5" fill="#39A6A3"/>
</g>
<g opacity="0.7">
<path d="M88.25 101.122C86.6033 100.939 84.9837 100.565 83.424 100.006C83.4715 98.8848 83.5 97.7163 83.5 96.5003V94.8995C84.9725 95.6025 86.5733 96.0918 88.25 96.334V84.6253C88.25 82.7356 89.0007 80.9234 90.3369 79.5872C91.6731 78.251 93.4853 77.5003 95.375 77.5003H107.084C106.705 74.8683 105.7 72.3655 104.154 70.202C102.608 68.0386 100.565 66.2776 98.1979 65.0668C95.8304 63.8561 93.2069 63.2309 90.5478 63.2438C87.8887 63.2566 85.2714 63.9072 82.9157 65.1408C82.54 63.5872 81.9212 62.1028 81.0823 60.7423C84.1615 59.2053 87.5664 58.4346 91.0074 58.4956C94.4484 58.5567 97.8238 59.4477 100.847 61.093C103.869 62.7382 106.45 65.089 108.37 67.9456C110.289 70.8021 111.491 74.0799 111.872 77.5003H119.125C121.015 77.5003 122.827 78.251 124.163 79.5872C125.499 80.9234 126.25 82.7356 126.25 84.6253V108.375C126.25 110.265 125.499 112.077 124.163 113.413C122.827 114.75 121.015 115.5 119.125 115.5H95.375C93.4853 115.5 91.6731 114.75 90.3369 113.413C89.0007 112.077 88.25 110.265 88.25 108.375V101.122ZM111.872 82.2503C111.332 87.0696 109.17 91.5624 105.741 94.9915C102.312 98.4206 97.8193 100.582 93 101.122V108.375C93 109.005 93.2502 109.609 93.6956 110.055C94.141 110.5 94.7451 110.75 95.375 110.75H119.125C119.755 110.75 120.359 110.5 120.804 110.055C121.25 109.609 121.5 109.005 121.5 108.375V84.6253C121.5 83.9954 121.25 83.3913 120.804 82.9459C120.359 82.5005 119.755 82.2503 119.125 82.2503H111.872ZM107.084 82.2503H95.375C94.7451 82.2503 94.141 82.5005 93.6956 82.9459C93.2502 83.3913 93 83.9954 93 84.6253V96.334C96.5529 95.8205 99.8443 94.1714 102.383 91.633C104.921 89.0946 106.57 85.8032 107.084 82.2503V82.2503ZM77.7763 84.915C77.2775 83.0815 76.47 81.2433 75.083 79.8325C77.325 77.7093 78.75 74.3273 78.75 70.3753C78.75 67.0645 78.0803 64.7893 76.869 62.97C76.3315 62.1876 75.7104 61.4661 75.0165 60.8183C74.7506 60.5615 74.4814 60.3082 74.209 60.0583C73.9193 59.7875 73.6533 59.5405 73.3065 59.1938C72.594 58.4813 72.5133 57.9113 72.5133 57.612C72.514 57.4457 72.5413 57.2806 72.594 57.1228C72.8112 56.6531 72.869 56.1254 72.7588 55.6199C72.6485 55.1143 72.3761 54.6586 71.9831 54.322C71.5901 53.9855 71.0979 53.7865 70.5814 53.7553C70.065 53.7241 69.5524 53.8625 69.1218 54.1493L69.1122 54.154L69.098 54.1635L69.0553 54.192L68.9127 54.287C68.2002 54.7952 67.5138 55.339 66.856 55.9163C65.6685 56.966 64.12 58.5193 63.0228 60.3718C62.0649 61.9076 61.2962 63.5535 60.7333 65.2738C60.1633 66.979 59.75 68.8268 59.75 70.3753C59.75 74.3273 61.175 77.7045 63.417 79.8373C62.03 81.2433 61.2225 83.0815 60.7238 84.9198C59.75 88.4918 59.75 92.9093 59.75 96.3245V96.5003C59.75 106.276 61.5787 112.08 63.6497 115.534C64.69 117.263 65.773 118.379 66.6803 119.082C67.1637 119.459 67.6898 119.778 68.2478 120.032C68.5704 120.15 68.9076 120.223 69.25 120.25C69.649 120.25 70.2522 120.032 70.2522 120.032C70.8102 119.778 71.3363 119.459 71.8197 119.082C72.7222 118.379 73.8147 117.263 74.8502 115.534C76.9212 112.085 78.75 106.276 78.75 96.5003V96.3293C78.75 92.9093 78.75 88.4965 77.7763 84.915ZM66.8132 83.1575C67.35 82.616 68.0673 82.2503 69.25 82.2503C70.4375 82.2503 71.15 82.6208 71.6868 83.1528C72.2853 83.756 72.803 84.7345 73.1925 86.1643C73.981 89.0665 74 92.876 74 96.5003C74 105.725 72.2663 110.608 70.7748 113.092C70.2048 114.042 69.668 114.655 69.25 115.04C68.6528 114.465 68.1395 113.81 67.7252 113.092C66.2337 110.603 64.5 105.725 64.5 96.5003C64.5 92.876 64.519 89.0665 65.3075 86.1643C65.697 84.7393 66.2147 83.756 66.8132 83.1528V83.1575ZM69.25 77.5003C67.4213 77.5003 64.5 75.4673 64.5 70.3753C64.5 69.5535 64.747 68.252 65.241 66.7795C65.6912 65.3894 66.3118 64.0604 67.0888 62.8228C67.502 62.1245 68.0388 61.4453 68.6183 60.823C68.946 61.4025 69.3783 61.9868 69.9483 62.5568C70.295 62.9035 70.7462 63.3215 71.131 63.6825L71.72 64.2335C72.2187 64.718 72.6035 65.1408 72.9122 65.611C73.4822 66.4613 74 67.7485 74 70.3753C74 75.4673 71.0787 77.5003 69.25 77.5003Z" fill="white"/>
</g>
<defs>
<filter id="filter0_d_48_79" x="0" y="0" width="183" height="183" filterUnits="userSpaceOnUse" color-interpolation-filters="sRGB">
<feFlood flood-opacity="0" result="BackgroundImageFix"/>
<feColorMatrix in="SourceAlpha" type="matrix" values="0 0 0 0 0 0 0 0 0 0 0 0 0 0 0 0 0 0 127 0" result="hardAlpha"/>
<feOffset dy="2"/>
<feGaussianBlur stdDeviation="5"/>
<feComposite in2="hardAlpha" operator="out"/>
<feColorMatrix type="matrix" values="0 0 0 0 0 0 0 0 0 0 0 0 0 0 0 0 0 0 0.1 0"/>
<feBlend mode="normal" in2="BackgroundImageFix" result="effect1_dropShadow_48_79"/>
<feBlend mode="normal" in="SourceGraphic" in2="effect1_dropShadow_48_79" result="shape"/>
</filter>
</defs>
</svg>
